<?xml version="1.0" encoding="UTF-8" standalone="no"?>
<!-- Created with Inkscape (http://www.inkscape.org/) -->

<svg
   width="68.446014mm"
   height="68.445999mm"
   version="1.1"
   viewBox="0 0 68.446017 68.445999"
   xml:space="preserve"
   id="svg16"
   sodipodi:docname="handicapIcon.svg"
   inkscape:version="1.3-beta (cedbd6c6ff, 2023-05-28)"
   xmlns:inkscape="http://www.inkscape.org/namespaces/inkscape"
   xmlns:sodipodi="http://sodipodi.sourceforge.net/DTD/sodipodi-0.dtd"
   xmlns="http://www.w3.org/2000/svg"
   xmlns:svg="http://www.w3.org/2000/svg"><defs
     id="defs16" /><sodipodi:namedview
     id="namedview16"
     pagecolor="#ffffff"
     bordercolor="#666666"
     borderopacity="1.0"
     inkscape:showpageshadow="2"
     inkscape:pageopacity="0.0"
     inkscape:pagecheckerboard="0"
     inkscape:deskcolor="#d1d1d1"
     inkscape:document-units="mm"
     inkscape:zoom="0.4012831"
     inkscape:cx="9.9680251"
     inkscape:cy="532.04334"
     inkscape:window-width="1366"
     inkscape:window-height="705"
     inkscape:window-x="1432"
     inkscape:window-y="-8"
     inkscape:window-maximized="1"
     inkscape:current-layer="svg16" /><g
     id="g337"
     transform="translate(108.87717,81.024873)"
     inkscape:export-filename="hearing.png"
     inkscape:export-xdpi="190.00087"
     inkscape:export-ydpi="190.00087"><circle
       style="fill:#065ad8;fill-opacity:1;stroke-width:0.147301;stroke-linecap:round;stroke-linejoin:round"
       id="path332"
       cx="-74.654167"
       cy="-46.801865"
       r="34.223" /><g
       id="g331"
       transform="matrix(1.5865616,0,0,1.5865616,-373.69503,-437.82697)"
       style="fill:#ffffff"><path
         style="fill:#ffffff"
         d="m 202.42578,240.89136 c 0.46946,-0.56567 0.006,-1.82964 -1.51686,-4.13994 -1.51675,-2.30051 -3.66852,-4.1907 -6.2673,-5.50541 -1.95348,-0.98826 -3.60738,-1.35959 -3.60738,-0.80991 0,0.13362 -0.066,0.41484 -0.14658,0.62493 -0.10433,0.27186 0.29612,0.55861 1.38906,0.99467 3.43595,1.37086 6.48149,4.08475 8.02291,7.14923 1.08414,2.15537 1.47781,2.46763 2.12615,1.68643 z"
         id="path205" /><path
         style="fill:#ffffff"
         d="m 199.60655,241.67655 c 0.27322,-0.712 -1.44937,-3.58361 -3.18387,-5.30759 -1.03039,-1.02416 -2.27599,-1.93326 -3.35328,-2.4474 -1.9989,-0.95399 -2.44689,-1.00264 -2.8196,-0.30622 -0.3662,0.68426 -0.34553,1.07569 0.0568,1.07594 0.1819,1.2e-4 1.0545,0.34261 1.93911,0.76111 2.04295,0.96648 4.29839,3.16731 5.25286,5.12566 0.57958,1.18917 0.87295,1.52136 1.34359,1.52136 0.33115,0 0.67512,-0.19029 0.76436,-0.42286 z"
         id="path204" /><path
         style="fill:#ffffff"
         d="m 182.61533,244.61295 c 0.95538,-3.21793 3.73549,-4.84895 6.38102,-3.74358 1.18551,0.49534 2.48907,2.06379 2.83357,3.40937 0.43076,1.68254 0.48044,1.78807 0.92148,1.95731 0.75648,0.29029 1.25955,-0.44083 1.07923,-1.56847 -0.52072,-3.25644 -3.29203,-5.72426 -6.44291,-5.73736 -1.75033,-0.007 -3.07703,0.53589 -4.37955,1.79304 -2.14501,2.07031 -3.10094,5.80344 -1.4234,5.55876 0.43212,-0.063 0.66638,-0.44243 1.03056,-1.66907 z"
         id="path203" /><path
         style="fill:#ffffff"
         d="m 188.0709,246.80899 c 0.74163,-0.74163 0.0202,-1.99239 -0.96827,-1.67866 -0.66683,0.21164 -0.9019,0.83993 -0.55605,1.48616 0.30785,0.57523 1.04811,0.66871 1.52432,0.1925 z"
         id="path202" /><path
         style="fill:#ffffff"
         d="m 185.20315,249.52691 c 0.52912,-0.98867 -0.34316,-1.86095 -1.33183,-1.33183 -0.57523,0.30785 -0.66871,1.04811 -0.1925,1.52433 0.47622,0.47621 1.21647,0.38273 1.52433,-0.1925 z"
         id="path201" /><path
         style="fill:#ffffff"
         d="m 183.19873,253.41128 c 0.24401,-0.38748 0.0455,-0.70758 -1.22935,-1.98244 -1.27486,-1.27486 -1.59495,-1.47336 -1.98243,-1.22934 -0.84341,0.53114 -0.66172,1.1256 0.76098,2.48966 1.43241,1.37338 1.94546,1.52455 2.4508,0.72212 z"
         id="path200" /><path
         style="fill:#ffffff"
         d="m 179.17256,255.4687 c 0.22772,-0.49979 0.21876,-0.74888 -0.0381,-1.05833 -0.80613,-0.97133 -2.1638,-0.0944 -1.63857,1.05833 0.17524,0.38462 0.52026,0.65362 0.83832,0.65362 0.31806,0 0.66307,-0.269 0.83832,-0.65362 z"
         id="path199" /><path
         style="fill:#ffffff"
         d="m 176.23482,258.47134 c 0.24512,-0.45801 0.21029,-0.64823 -0.18913,-1.03282 -0.95421,-0.91882 -2.29864,0.34078 -1.3627,1.27672 0.49092,0.49093 1.21988,0.37636 1.55183,-0.2439 z"
         id="path198" /><path
         style="fill:#ffffff"
         d="m 190.18476,261.76374 c 1.45064,-1.15879 1.90589,-2.24935 1.91321,-4.58308 0.007,-2.28689 0.48197,-3.5613 2.14978,-5.77031 0.58728,-0.77785 1.36921,-2.07267 1.73762,-2.87738 0.58336,-1.27423 0.65444,-1.72888 0.55064,-3.522 -0.20469,-3.53586 -2.13282,-6.44937 -5.23719,-7.91369 -1.24772,-0.58854 -1.8136,-0.68642 -3.96875,-0.68642 -2.20533,0 -2.69487,0.089 -3.99231,0.72623 -2.83697,1.39325 -4.85194,4.22819 -5.17033,7.27433 -0.12725,1.21747 -0.0739,1.61172 0.25482,1.88457 0.86611,0.7188 1.34397,0.25932 1.83436,-1.76377 0.7372,-3.04129 2.05147,-4.69919 4.57416,-5.77008 3.43548,-1.45838 7.98458,0.68085 9.23181,4.34129 0.89302,2.62085 0.35105,4.62893 -2.16823,8.03366 -1.40588,1.90001 -1.91845,3.33482 -1.91845,5.37024 0,0.93346 -0.11609,2.00256 -0.25798,2.37577 -0.31313,0.8236 -1.7306,1.7348 -2.70075,1.73615 -0.84482,10e-4 -1.18994,0.75792 -0.7341,1.60966 0.45589,0.85184 2.56825,0.6 3.90169,-0.46517 z"
         id="path197" /></g></g></svg>
