<?xml version="1.0" encoding="UTF-8" standalone="no"?>
<!-- Created with Inkscape (http://www.inkscape.org/) -->

<svg
   width="68.445999mm"
   height="68.445999mm"
   version="1.1"
   viewBox="0 0 68.446001 68.445999"
   xml:space="preserve"
   id="svg16"
   sodipodi:docname="handicapIcon.svg"
   inkscape:version="1.3-beta (cedbd6c6ff, 2023-05-28)"
   xmlns:inkscape="http://www.inkscape.org/namespaces/inkscape"
   xmlns:sodipodi="http://sodipodi.sourceforge.net/DTD/sodipodi-0.dtd"
   xmlns="http://www.w3.org/2000/svg"
   xmlns:svg="http://www.w3.org/2000/svg"><defs
     id="defs16" /><sodipodi:namedview
     id="namedview16"
     pagecolor="#ffffff"
     bordercolor="#666666"
     borderopacity="1.0"
     inkscape:showpageshadow="2"
     inkscape:pageopacity="0.0"
     inkscape:pagecheckerboard="0"
     inkscape:deskcolor="#d1d1d1"
     inkscape:document-units="mm"
     inkscape:zoom="0.4012831"
     inkscape:cx="9.9680251"
     inkscape:cy="532.04334"
     inkscape:window-width="1366"
     inkscape:window-height="705"
     inkscape:window-x="1432"
     inkscape:window-y="-8"
     inkscape:window-maximized="1"
     inkscape:current-layer="svg16" /><g
     id="g1"
     transform="translate(-26.921695,-26.249113)"><circle
       style="fill:#065ad8;fill-opacity:1;stroke-width:0.147301;stroke-linecap:round;stroke-linejoin:round"
       id="circle332"
       cx="61.144695"
       cy="60.472115"
       r="34.223" /><g
       transform="matrix(1.2558335,0,0,1.2822814,360.18817,-89.097)"
       id="g12"
       style="fill:#ffffff"><path
         d="m -242.18,101.11 c 0.40075,-0.0524 0.90543,-0.0224 1.742,0.061 1.0472,0.10439 2.526,0.17423 3.2861,0.15503 0.61447,-0.0155 1.0343,0.0183 1.5984,0.22583 0.56402,0.20752 1.2721,0.58902 2.4639,1.2692 1.426,0.81379 2.4793,1.535 3.176,2.1792 0.34837,0.32209 0.60764,0.62471 0.7798,0.91003 0.17215,0.28531 0.25735,0.55332 0.25735,0.80563 0,0.34097 0.17859,1.0475 0.39687,1.5699 0.21828,0.5224 0.39688,1.3067 0.39688,1.743 0,0.27006 -0.0932,0.56472 -0.25632,0.86041 -0.16311,0.2957 -0.39619,0.59261 -0.67541,0.86765 -0.27922,0.27504 -0.60458,0.5283 -0.95291,0.73639 -0.34834,0.20808 -0.71941,0.37077 -1.0899,0.4656 -0.6195,0.1586 -1.2754,0.33845 -1.4573,0.39946 -0.10237,0.0343 -0.18528,0.18607 -0.24237,0.42995 -0.0571,0.24388 -0.0884,0.5799 -0.0884,0.98288 0,0.41701 -0.0335,0.76998 -0.11059,1.0713 -0.0771,0.30128 -0.19795,0.55114 -0.37207,0.76067 -0.17413,0.20954 -0.4019,0.37913 -0.69298,0.5209 -0.29109,0.14178 -0.64536,0.25547 -1.0733,0.35347 -0.72761,0.16661 -1.7137,0.46776 -2.1916,0.66921 -0.59668,0.25153 -0.99661,0.36699 -1.4134,0.32453 -0.41674,-0.0425 -0.85033,-0.24264 -1.5152,-0.6227 -0.63332,-0.36205 -1.1989,-0.65836 -1.2568,-0.65836 -0.0579,0 -0.10542,0.58057 -0.10542,1.2904 0,0.34141 -0.0293,0.64156 -0.0842,0.89503 -0.0549,0.25348 -0.13546,0.46026 -0.23874,0.61599 -0.10328,0.15572 -0.22899,0.26036 -0.37414,0.30851 -0.14515,0.0481 -0.30991,0.0398 -0.49041,-0.0295 -0.14619,-0.0561 -0.24603,-0.0495 -0.30954,0.0326 -0.0635,0.082 -0.0904,0.2398 -0.0904,0.48472 0,0.3688 -0.12251,0.89929 -0.27234,1.1793 -0.16688,0.31181 -0.46576,0.57617 -0.84077,0.78341 -0.37502,0.20724 -0.82623,0.35754 -1.2992,0.4408 -0.47292,0.0833 -0.96723,0.0994 -1.4278,0.0393 -0.46057,-0.0601 -0.88773,-0.19669 -1.2258,-0.41961 -1.578,-1.0406 -3.2813,-2.2959 -3.4742,-2.5606 -0.11309,-0.15512 -0.14787,-0.60065 -0.077,-0.9896 0.0512,-0.28104 0.0299,-0.51131 -0.10852,-0.77566 -0.13843,-0.26436 -0.39395,-0.56241 -0.81029,-0.97876 -0.47031,-0.47031 -0.7321,-0.76615 -0.87643,-1.0924 -0.14433,-0.32628 -0.17105,-0.68346 -0.17105,-1.2764 0,-0.72643 0.1786,-1.8267 0.39688,-2.4453 0.21828,-0.61868 0.39687,-1.7574 0.39687,-2.5306 0,-0.61736 0.0304,-1.0055 0.1695,-1.371 0.13912,-0.36546 0.38698,-0.7084 0.82269,-1.2356 0.5457,-0.66028 1.4194,-1.772 1.9415,-2.4701 0.26806,-0.35844 0.62946,-0.72346 1.0418,-1.0697 0.41234,-0.34624 0.87554,-0.67358 1.3462,-0.95602 0.47063,-0.28243 0.94872,-0.51976 1.3916,-0.68678 0.44292,-0.16701 0.85054,-0.26355 1.1798,-0.26355 0.44425,0 1.2377,-0.25375 1.7632,-0.56379 0.41979,-0.24767 0.71649,-0.38271 1.1172,-0.43511 z"
         id="path11"
         style="fill:#ffffff" /><path
         d="m -241.05,96.558 c -0.9946,-0.0017 -1.8382,0.01882 -2.5973,0.077 -0.75903,0.05818 -1.4334,0.15396 -2.0888,0.30179 -0.6554,0.14783 -1.292,0.34772 -1.9756,0.61495 -0.6836,0.26723 -1.4144,0.60164 -2.2583,1.018 -0.95403,0.47078 -1.6436,0.85885 -2.2319,1.2805 -0.58834,0.42169 -1.075,0.87736 -1.6237,1.4836 -0.37948,0.41934 -0.78389,0.95393 -1.1834,1.5503 -0.39949,0.59637 -0.79445,1.2542 -1.1555,1.9198 -0.36104,0.66559 -0.68829,1.3388 -0.9524,1.9658 -0.26411,0.62703 -0.4649,1.2081 -0.57361,1.6888 -0.0974,0.43087 -0.16703,1.0499 -0.2098,1.7684 -0.0428,0.71847 -0.0589,1.5363 -0.0491,2.3642 0.0196,1.6559 0.14246,3.3527 0.35967,4.3775 0.11905,0.56172 0.22751,1.0191 0.36329,1.4428 0.13577,0.42374 0.29859,0.81351 0.52658,1.2408 0.45598,0.85448 1.1722,1.8577 2.45,3.575 0.5783,0.77719 1.1631,1.6413 1.6397,2.4071 0.47663,0.76581 0.84526,1.4333 0.99012,1.818 0.16031,0.42574 0.2831,0.91939 0.36897,1.4578 0.0859,0.5384 0.13457,1.1215 0.14521,1.727 0.0106,0.60555 -0.0168,1.2332 -0.0822,1.8604 -0.0654,0.6272 -0.16887,1.2539 -0.31109,1.8572 -0.15372,0.65208 -0.23547,1.0954 -0.24857,1.4118 -0.0131,0.3164 0.0426,0.50619 0.1633,0.65164 0.0859,0.10348 0.22621,0.18847 0.38292,0.24236 0.15671,0.0539 0.32974,0.077 0.48163,0.0553 0.15414,-0.022 0.29977,-0.13672 0.43511,-0.32557 0.13534,-0.18884 0.2606,-0.45207 0.37311,-0.77256 0.22501,-0.64098 0.40002,-1.5101 0.50953,-2.4665 0.1095,-0.95642 0.15346,-2.0001 0.11523,-2.9905 -0.0382,-0.99037 -0.15853,-1.9273 -0.37672,-2.6701 -0.25408,-0.86503 -0.49726,-1.4953 -0.98547,-2.3249 -0.48821,-0.8296 -1.2216,-1.8585 -2.4557,-3.5223 -0.67094,-0.90455 -1.1862,-1.6226 -1.5823,-2.266 -0.39616,-0.64342 -0.67285,-1.2124 -0.86558,-1.8195 -0.19274,-0.60709 -0.30157,-1.2524 -0.36226,-2.0479 -0.0607,-0.79558 -0.0734,-1.7413 -0.0734,-2.9502 v -3.9688 l 1.155,-2.3203 c 0.4128,-0.82933 0.80729,-1.5389 1.2128,-2.159 0.40556,-0.62014 0.82234,-1.151 1.2795,-1.6226 0.45716,-0.47166 0.95476,-0.88425 1.5224,-1.2681 0.56763,-0.3839 1.2051,-0.73922 1.942,-1.0961 0.77192,-0.37378 1.4328,-0.6723 2.0454,-0.91002 0.61257,-0.23772 1.1767,-0.41462 1.7565,-0.54467 0.57977,-0.13005 1.175,-0.21331 1.8485,-0.26407 0.67349,-0.05075 1.4255,-0.06889 2.3192,-0.06873 1.4374,2.55e-4 2.7461,0.09372 3.9615,0.29456 1.2154,0.20083 2.3376,0.50895 3.4019,0.93896 1.0642,0.43001 2.0703,0.98186 3.0541,1.6697 0.9838,0.6878 1.945,1.5114 2.9192,2.4856 0.65243,0.65243 1.1939,1.2682 1.6557,1.8903 0.46183,0.62217 0.84427,1.2508 1.1793,1.9286 0.25789,0.52181 0.44992,0.89655 0.58446,1.232 0.13453,0.33541 0.21138,0.63143 0.23874,0.99632 0.0547,0.72978 -0.0885,1.7343 -0.36535,3.8773 -0.0459,0.35553 -0.0517,0.67592 -0.001,0.99219 0.0506,0.31626 0.15783,0.62842 0.33796,0.96738 0.18014,0.33896 0.43311,0.70501 0.77566,1.1286 0.34256,0.4236 0.77469,0.90517 1.3126,1.4754 0.83623,0.88645 1.2938,1.4238 1.4258,1.7399 0.066,0.15805 0.0504,0.26088 -0.0398,0.32401 -0.0902,0.0631 -0.25524,0.0868 -0.48835,0.0868 -0.16516,0 -0.37334,0.0753 -0.59531,0.19999 -0.22196,0.1247 -0.45768,0.29859 -0.67903,0.49661 -0.22134,0.19802 -0.42788,0.41979 -0.59117,0.63976 -0.1633,0.21996 -0.28343,0.43836 -0.33125,0.6289 -0.0889,0.35413 -0.0416,0.95919 0.1049,1.3446 0.0807,0.21236 0.12371,0.4291 0.12868,0.62528 0.005,0.19618 -0.0282,0.37192 -0.10026,0.50075 -0.0736,0.13146 -0.1052,0.29809 -0.0961,0.48162 0.009,0.18353 0.059,0.38367 0.14882,0.58084 0.1191,0.2614 0.17146,0.43199 0.1478,0.56328 -0.0237,0.13128 -0.12366,0.22315 -0.30851,0.32659 -0.12252,0.0686 -0.21996,0.17549 -0.29197,0.31213 -0.072,0.13663 -0.11821,0.30321 -0.13798,0.49144 -0.0395,0.37647 0.0269,0.83938 0.20671,1.3234 0.12516,0.33689 0.30906,1.0594 0.40876,1.6051 l 0.18138,0.99218 h -2.0112 c -0.69651,0 -1.3073,0.0252 -1.8459,0.0796 -0.53862,0.0544 -1.0051,0.138 -1.4139,0.25477 -0.4088,0.11677 -0.75964,0.26655 -1.0666,0.45372 -0.30696,0.18716 -0.57041,0.4114 -0.80357,0.67696 -0.34563,0.39363 -0.60156,0.83913 -0.76946,1.2826 -0.16791,0.44348 -0.24747,0.88527 -0.23978,1.2712 0.008,0.38598 0.10257,0.71627 0.2837,0.93741 0.0906,0.11057 0.20289,0.19365 0.33641,0.24288 0.13353,0.0492 0.28836,0.0648 0.46458,0.0393 0.20276,-0.0294 0.35252,-0.11907 0.4718,-0.30283 0.11928,-0.18376 0.20788,-0.46195 0.28784,-0.86816 0.0853,-0.43308 0.18125,-0.77534 0.32608,-1.0485 0.14482,-0.27317 0.33874,-0.47717 0.61908,-0.63252 0.28034,-0.15534 0.64716,-0.26249 1.139,-0.34209 0.49184,-0.0796 1.1086,-0.13184 1.8877,-0.17777 1.4221,-0.0838 2.3604,-0.20051 2.9776,-0.40411 0.30859,-0.1018 0.53669,-0.22543 0.70486,-0.37723 0.16818,-0.15181 0.27639,-0.33207 0.34468,-0.54726 0.0679,-0.21394 0.0396,-0.84331 -0.0455,-1.5529 -0.0851,-0.70957 -0.22685,-1.4991 -0.38447,-2.0335 -0.042,-0.14242 0.0525,-0.49703 0.2098,-0.78807 0.15729,-0.29104 0.36839,-1.2856 0.46922,-2.2102 0.0743,-0.68079 0.0997,-1.1236 0.0631,-1.4444 -0.0367,-0.32072 -0.13544,-0.5192 -0.30954,-0.71158 -0.19989,-0.22087 -0.29677,-0.34747 -0.27337,-0.46767 0.0234,-0.12021 0.16681,-0.23401 0.44803,-0.43098 0.33265,-0.233 0.86753,-0.42375 1.1886,-0.42375 0.30447,0 0.56905,-0.0885 0.78393,-0.24185 0.21489,-0.15339 0.38042,-0.37178 0.48628,-0.63096 0.10586,-0.25918 0.15232,-0.55958 0.12971,-0.87695 -0.0226,-0.31738 -0.11474,-0.65183 -0.28526,-0.97979 -0.16527,-0.31785 -0.91763,-1.2326 -1.6722,-2.033 -0.56994,-0.60449 -1.0042,-1.0731 -1.3286,-1.4645 -0.3244,-0.3914 -0.53899,-0.7058 -0.67024,-1.0025 -0.13126,-0.29673 -0.17909,-0.57575 -0.1695,-0.89607 0.01,-0.32032 0.0766,-0.6819 0.17467,-1.1441 0.19395,-0.91395 0.26335,-1.7908 0.2005,-2.65 -0.0628,-0.85919 -0.25802,-1.7009 -0.59324,-2.5445 -0.33523,-0.8436 -0.81087,-1.6893 -1.434,-2.5564 -0.62315,-0.86717 -1.3941,-1.7557 -2.3208,-2.6856 -1.0311,-1.0347 -2.0518,-1.9071 -3.1058,-2.6334 -0.52696,-0.36319 -1.0624,-0.68997 -1.6113,-0.98237 -0.5489,-0.2924 -1.1113,-0.55038 -1.6929,-0.77618 -0.58161,-0.2258 -1.182,-0.4195 -1.8071,-0.58291 -0.6251,-0.16341 -1.2749,-0.29631 -1.9544,-0.40153 -1.359,-0.21043 -2.838,-0.30878 -4.4793,-0.31161 z"
         id="path12"
         style="fill:#ffffff" /></g></g></svg>
