<?xml version="1.0" encoding="UTF-8" standalone="no"?>
<!-- Created with Inkscape (http://www.inkscape.org/) -->

<svg
   width="68.446007mm"
   height="68.445999mm"
   version="1.1"
   viewBox="0 0 68.446009 68.445999"
   xml:space="preserve"
   id="svg16"
   sodipodi:docname="handicapIcon.svg"
   inkscape:version="1.3-beta (cedbd6c6ff, 2023-05-28)"
   xmlns:inkscape="http://www.inkscape.org/namespaces/inkscape"
   xmlns:sodipodi="http://sodipodi.sourceforge.net/DTD/sodipodi-0.dtd"
   xmlns="http://www.w3.org/2000/svg"
   xmlns:svg="http://www.w3.org/2000/svg"><defs
     id="defs16" /><sodipodi:namedview
     id="namedview16"
     pagecolor="#ffffff"
     bordercolor="#666666"
     borderopacity="1.0"
     inkscape:showpageshadow="2"
     inkscape:pageopacity="0.0"
     inkscape:pagecheckerboard="0"
     inkscape:deskcolor="#d1d1d1"
     inkscape:document-units="mm"
     inkscape:zoom="0.4012831"
     inkscape:cx="9.9680251"
     inkscape:cy="532.04334"
     inkscape:window-width="1366"
     inkscape:window-height="705"
     inkscape:window-x="1432"
     inkscape:window-y="-8"
     inkscape:window-maximized="1"
     inkscape:current-layer="svg16" /><g
     id="g336"
     transform="translate(99.328283,-81.305962)"
     inkscape:export-filename="motor.png"
     inkscape:export-xdpi="190.00087"
     inkscape:export-ydpi="190.00087"><circle
       style="fill:#065ad8;fill-opacity:1;stroke-width:0.147301;stroke-linecap:round;stroke-linejoin:round"
       id="circle333"
       cx="-65.105293"
       cy="115.52896"
       r="34.223" /><g
       id="g332"
       transform="matrix(1.6813379,0,0,1.6813379,44.358705,-78.714261)"><g
         id="g333"
         transform="translate(-299.95338,-47.221404)"
         style="fill:#ffffff"><path
           style="fill:#ffffff"
           d="m 232.39327,151.41102 c 2.41469,-1.47233 1.29361,-5.30333 -1.55193,-5.30333 -2.48419,0 -3.83593,2.56836 -2.43136,4.61968 0.84933,1.2404 2.58237,1.53784 3.98329,0.68365 z"
           id="path294" /><path
           style="fill:#ffffff"
           d="m 247.66847,174.00233 c 0.51798,-0.51798 0.53928,-1.93599 0.0398,-2.64912 -0.2068,-0.29525 -1.40867,-2.31596 -2.67082,-4.49048 -1.26216,-2.17451 -2.43242,-4.04121 -2.60057,-4.14822 -0.16816,-0.107 -2.04941,-0.19638 -4.18055,-0.19861 l -3.87482,-0.004 -0.10093,-1.05833 -0.10092,-1.05833 h 2.84095 c 2.58421,0 2.88985,-0.0525 3.38192,-0.58066 0.35961,-0.386 0.48321,-0.76262 0.36868,-1.12346 -0.31969,-1.00726 -0.90259,-1.18912 -3.83961,-1.19788 l -2.8183,-0.008 -0.19113,-1.64683 c -0.15941,-1.3735 -0.33498,-1.79067 -1.05785,-2.51354 -1.18747,-1.18746 -2.61057,-1.21214 -3.83694,-0.0665 l -0.8566,0.80018 0.19464,5.21909 c 0.29134,7.81211 0.0571,7.5704 7.44519,7.68164 l 5.39919,0.0813 0.5015,0.97704 c 1.01209,1.97182 3.46833,5.97662 3.79139,6.18172 0.55348,0.35139 1.72412,0.24518 2.1658,-0.1965 z"
           id="path293" /><path
           style="fill:#ffffff"
           d="m 234.86251,179.06982 c 2.99376,-0.63469 5.648,-2.58165 7.45864,-5.47112 0.41219,-0.65779 0.39645,-0.74686 -0.36863,-2.08646 l -0.79919,-1.39934 -0.62411,1.53558 c -2.25415,5.54621 -9.48506,7.07281 -13.7452,2.90192 -2.00269,-1.96074 -2.63469,-3.45204 -2.63501,-6.21771 -2.9e-4,-2.50554 0.49953,-3.88647 2.05941,-5.68979 0.74258,-0.85848 0.83068,-1.12539 0.74977,-2.2717 -0.0504,-0.71441 -0.17322,-1.29893 -0.27288,-1.29893 -0.39979,0 -2.91909,2.64357 -3.55725,3.73271 -0.85755,1.4636 -1.50215,3.90614 -1.50215,5.69201 0,1.56073 0.70271,4.02783 1.53018,5.37226 1.58032,2.56759 4.64388,4.72997 7.49432,5.28976 1.68795,0.3315 2.28767,0.3188 4.2121,-0.0892 z"
           id="path292" /></g></g></g></svg>
