<?xml version="1.0" encoding="UTF-8" standalone="no"?>
<!-- Created with Inkscape (http://www.inkscape.org/) -->

<svg
   width="68.446007mm"
   height="68.445999mm"
   version="1.1"
   viewBox="0 0 68.446009 68.445999"
   xml:space="preserve"
   id="svg16"
   sodipodi:docname="handicapIcon.svg"
   inkscape:version="1.3-beta (cedbd6c6ff, 2023-05-28)"
   xmlns:inkscape="http://www.inkscape.org/namespaces/inkscape"
   xmlns:sodipodi="http://sodipodi.sourceforge.net/DTD/sodipodi-0.dtd"
   xmlns="http://www.w3.org/2000/svg"
   xmlns:svg="http://www.w3.org/2000/svg"><defs
     id="defs16" /><sodipodi:namedview
     id="namedview16"
     pagecolor="#ffffff"
     bordercolor="#666666"
     borderopacity="1.0"
     inkscape:showpageshadow="2"
     inkscape:pageopacity="0.0"
     inkscape:pagecheckerboard="0"
     inkscape:deskcolor="#d1d1d1"
     inkscape:document-units="mm"
     inkscape:zoom="0.4012831"
     inkscape:cx="9.9680251"
     inkscape:cy="532.04334"
     inkscape:window-width="1366"
     inkscape:window-height="705"
     inkscape:window-x="1432"
     inkscape:window-y="-8"
     inkscape:window-maximized="1"
     inkscape:current-layer="svg16" /><g
     id="g2"
     transform="translate(-193.1059,-192.31161)"><circle
       style="fill:#065ad8;fill-opacity:1;stroke-width:0.147301;stroke-linecap:round;stroke-linejoin:round"
       id="circle334"
       cx="227.3289"
       cy="226.53461"
       r="34.223" /><g
       stroke-width="0.92168"
       id="g3"
       transform="matrix(1.1895184,0,0,1.1895184,370.84809,-39.73236)"
       style="fill:#ffffff"><path
         d="m -140.76,204.95 v 31.129 l 0.54868,0.49545 c 0.24653,0.22257 0.53536,0.45718 0.85673,0.6986 0.32138,0.24143 0.67529,0.48961 1.0522,0.73927 0.37692,0.24965 0.77691,0.50077 1.1901,0.74813 0.41319,0.24736 0.83958,0.49094 1.2695,0.72549 0.42997,0.23455 0.86344,0.46003 1.2909,0.67119 0.42741,0.21116 0.84878,0.408 1.2544,0.58524 0.40566,0.17725 0.79553,0.33492 1.16,0.46776 0.36447,0.13284 0.70358,0.2409 1.0076,0.31865 0.32519,0.0832 0.67756,0.15623 1.0478,0.21918 0.37028,0.0629 0.75845,0.11579 1.155,0.15853 0.39653,0.0427 0.80151,0.0753 1.2054,0.0977 0.40389,0.0224 0.80683,0.0346 1.1994,0.0366 0.39251,0.002 0.77457,-0.007 1.1368,-0.0252 0.36227,-0.0186 0.70476,-0.0475 1.0179,-0.0867 0.31316,-0.0392 0.59703,-0.0887 0.8423,-0.1486 0.12264,-0.03 0.2356,-0.0626 0.33771,-0.0977 0.10212,-0.0352 0.19347,-0.0728 0.27269,-0.11324 0.19362,-0.0987 0.34999,-0.17365 0.48472,-0.22567 0.0674,-0.026 0.12937,-0.0463 0.1878,-0.061 0.0584,-0.0148 0.11326,-0.0239 0.1666,-0.0277 0.0533,-0.004 0.10511,-0.002 0.1572,0.005 0.0521,0.007 0.10462,0.0191 0.15932,0.0364 0.1094,0.0347 0.22782,0.0901 0.37083,0.16502 0.0892,0.0467 0.22371,0.10433 0.39042,0.16833 0.16671,0.064 0.36558,0.13448 0.58352,0.207 0.43588,0.14504 0.94794,0.29828 1.4308,0.42485 v -5.3e-4 c 0.30312,0.0795 0.61816,0.14914 0.94057,0.20886 0.32241,0.0597 0.65219,0.10957 0.98506,0.14939 0.33288,0.0398 0.66879,0.0696 1.0033,0.0895 0.33456,0.0199 0.66771,0.0298 0.99513,0.0299 0.32742,1.2e-4 0.64914,-0.01 0.96057,-0.0293 0.31143,-0.0197 0.61262,-0.0493 0.89938,-0.0889 0.28675,-0.0396 0.55893,-0.0891 0.8121,-0.14859 0.25317,-0.0595 0.48733,-0.12878 0.6982,-0.20806 0.16531,-0.0622 0.33152,-0.13177 0.49823,-0.20833 0.1667,-0.0766 0.33389,-0.16005 0.50127,-0.2503 0.16739,-0.0902 0.335,-0.1872 0.50234,-0.29044 0.16733,-0.10324 0.33444,-0.21278 0.501,-0.32831 0.16657,-0.11553 0.33257,-0.23709 0.4977,-0.3642 0.16512,-0.12711 0.3293,-0.25973 0.49227,-0.3977 0.16297,-0.13797 0.32475,-0.28126 0.48485,-0.42936 0.1601,-0.14811 0.31853,-0.30111 0.47505,-0.45863 0.31303,-0.31505 0.61826,-0.64825 0.91275,-0.99672 0.29449,-0.34847 0.57834,-0.71223 0.84866,-1.0885 0.13516,-0.18813 0.2669,-0.37931 0.39492,-0.57332 0.12803,-0.194 0.25234,-0.39084 0.37255,-0.59 0.12021,-0.19917 0.23635,-0.4007 0.34804,-0.60431 0.1117,-0.20362 0.21894,-0.40927 0.32143,-0.61663 0.11097,-0.22451 0.22022,-0.46502 0.32712,-0.71886 0.10689,-0.25385 0.21137,-0.521 0.31268,-0.79873 0.10131,-0.27773 0.19953,-0.56612 0.29374,-0.86229 0.0942,-0.29618 0.18445,-0.60026 0.27004,-0.90945 0.0856,-0.30919 0.16647,-0.62341 0.24196,-0.94016 0.0755,-0.31676 0.14564,-0.63601 0.20952,-0.95488 0.0639,-0.31886 0.12155,-0.63736 0.1723,-0.95288 0.0508,-0.31551 0.0945,-0.62802 0.13058,-0.93474 0.0326,-0.27687 0.0703,-0.51894 0.11668,-0.73581 0.0464,-0.21687 0.10147,-0.40854 0.16912,-0.58445 0.0677,-0.1759 0.14782,-0.33615 0.24408,-0.49028 0.0963,-0.15412 0.2087,-0.30215 0.34089,-0.45373 0.0961,-0.11014 0.18854,-0.22708 0.27362,-0.34407 0.0851,-0.11698 0.16272,-0.23397 0.22885,-0.34446 0.0661,-0.1105 0.12079,-0.21446 0.15998,-0.30514 0.0392,-0.0907 0.0629,-0.16816 0.0671,-0.22567 0.0173,-0.23005 0.0524,-1.2411 0.0781,-2.2471 0.0129,-0.50295 0.0474,-1.2142 0.0926,-1.9549 0.0452,-0.7407 0.101,-1.5109 0.15654,-2.1317 0.0449,-0.50177 0.0768,-0.89707 0.0934,-1.2146 0.0166,-0.31752 0.0178,-0.55726 0.001,-0.74774 -0.008,-0.0952 -0.0209,-0.17821 -0.0384,-0.25242 -0.0175,-0.0742 -0.0397,-0.13966 -0.067,-0.19998 -0.0273,-0.0603 -0.0598,-0.11553 -0.0976,-0.16913 -0.0378,-0.0536 -0.081,-0.10557 -0.12992,-0.15958 -0.0605,-0.0668 -0.13079,-0.13065 -0.2062,-0.18873 -0.0754,-0.0581 -0.1559,-0.11039 -0.23654,-0.15441 -0.0806,-0.044 -0.16134,-0.0797 -0.23745,-0.10436 -0.0761,-0.0247 -0.14765,-0.0383 -0.20952,-0.0383 -0.0513,0 -0.0967,-0.004 -0.13707,-0.0152 -0.0403,-0.0115 -0.0755,-0.0306 -0.10622,-0.0614 -0.0308,-0.0309 -0.0571,-0.0735 -0.0796,-0.13164 -0.0225,-0.0582 -0.0412,-0.13187 -0.0567,-0.22515 -0.031,-0.18656 -0.0493,-0.45124 -0.0603,-0.82574 -0.011,-0.37449 -0.0145,-0.85874 -0.0159,-1.4842 -7.6e-4,-0.37015 -0.005,-0.71397 -0.0126,-1.0358 -0.008,-0.32182 -0.0197,-0.62173 -0.0363,-0.90402 -0.0165,-0.28229 -0.0377,-0.5469 -0.0644,-0.79846 -0.0266,-0.25155 -0.0587,-0.49003 -0.0968,-0.71966 -0.0382,-0.22963 -0.0825,-0.45044 -0.13362,-0.66695 -0.0512,-0.21651 -0.10919,-0.42867 -0.17482,-0.64086 -0.0656,-0.2122 -0.13896,-0.42445 -0.22051,-0.64113 -0.0815,-0.21668 -0.17137,-0.43778 -0.2703,-0.66774 l -0.50776,-1.1803 h -18.503 z m 21.163,0.995 7.5235,0.0514 h 1.3e-4 l 7.5239,0.051 h 1.3e-4 l 0.60245,1.4632 c 0.0697,0.16927 0.13136,0.3237 0.18595,0.47148 0.0546,0.14777 0.10205,0.28889 0.14329,0.43161 0.0412,0.14272 0.0763,0.28703 0.10595,0.44114 0.0297,0.15412 0.054,0.318 0.0739,0.49995 0.0199,0.18196 0.0356,0.38194 0.0475,0.60815 0.012,0.22621 0.0205,0.4787 0.0263,0.76562 0.0117,0.57382 0.0128,1.2855 0.0105,2.2008 l -0.009,3.9559 0.80151,-0.49558 h 1.3e-4 l 0.80204,-0.49545 0.16581,0.66073 c 0.0228,0.0908 0.0365,0.22005 0.0421,0.37599 0.006,0.15594 0.003,0.33858 -0.007,0.53584 -0.0103,0.19726 -0.0282,0.40914 -0.0532,0.62391 -0.025,0.21477 -0.0571,0.43239 -0.0955,0.64086 -0.0384,0.20846 -0.075,0.46639 -0.10833,0.75409 -0.0334,0.28771 -0.0634,0.60519 -0.0887,0.93262 -0.0253,0.32743 -0.0458,0.66483 -0.06,0.99248 -0.0142,0.32765 -0.022,0.64559 -0.022,0.93395 0,0.49531 -0.003,0.87697 -0.017,1.183 -0.007,0.15304 -0.0176,0.28721 -0.032,0.40725 -0.0145,0.12003 -0.0331,0.22592 -0.0572,0.32248 -0.0241,0.0966 -0.0535,0.1837 -0.0895,0.26633 -0.036,0.0826 -0.0786,0.1608 -0.129,0.23905 -0.0504,0.0782 -0.1085,0.15671 -0.17561,0.24011 -0.0671,0.0834 -0.1432,0.17175 -0.22938,0.2699 -0.14825,0.16886 -0.27112,0.32725 -0.37532,0.49386 -0.0521,0.0833 -0.0995,0.16866 -0.14317,0.25838 -0.0436,0.0897 -0.0833,0.18381 -0.12012,0.28461 -0.0736,0.2016 -0.1354,0.4301 -0.19203,0.7039 -0.0566,0.2738 -0.10816,0.59298 -0.16144,0.97606 -0.0489,0.35179 -0.10289,0.69925 -0.16144,1.0411 -0.0585,0.34183 -0.12172,0.67804 -0.18912,1.0072 -0.0674,0.32914 -0.13896,0.65119 -0.21442,0.96493 -0.0755,0.31373 -0.15484,0.61914 -0.23759,0.91474 -0.0827,0.2956 -0.16885,0.58145 -0.25812,0.8562 -0.0893,0.27475 -0.18162,0.53843 -0.27666,0.78959 -0.095,0.25116 -0.19288,0.48979 -0.29295,0.71463 -0.10007,0.22483 -0.20238,0.43581 -0.30672,0.63159 -0.18121,0.33997 -0.3778,0.67631 -0.58723,1.0064 -0.20943,0.33007 -0.43168,0.65395 -0.66443,0.9693 -0.23276,0.31535 -0.47605,0.62207 -0.72721,0.91766 -0.25117,0.29558 -0.51024,0.58 -0.77502,0.85077 h -1.3e-4 c -0.26476,0.27074 -0.53506,0.52801 -0.80853,0.76906 h -8e-5 c -0.27347,0.24104 -0.55007,0.46605 -0.82733,0.67225 h -1.3e-4 c -0.27726,0.20619 -0.55503,0.39368 -0.83118,0.56007 h -1.3e-4 c -0.13805,0.0832 -0.27566,0.16117 -0.41254,0.23349 h -1.3e-4 c -0.13688,0.0723 -0.27307,0.13914 -0.40817,0.19998 h -1.3e-4 c -0.11918,0.0537 -0.24514,0.10357 -0.37745,0.14978 h -1.3e-4 c -0.13231,0.0462 -0.27085,0.0888 -0.41493,0.12754 h -1.3e-4 c -0.14408,0.0388 -0.2937,0.0739 -0.44816,0.10529 h -1.4e-4 c -0.15446,0.0314 -0.31382,0.0591 -0.4773,0.0832 h -1.3e-4 c -0.32703,0.0481 -0.6708,0.0814 -1.0257,0.10025 h -1.4e-4 c -0.35493,0.0188 -0.721,0.0231 -1.093,0.0131 h -1.3e-4 c -0.37204,-0.01 -0.74992,-0.0343 -1.1281,-0.073 -0.37812,-0.0386 -0.75663,-0.0916 -1.13,-0.15853 h -1.3e-4 c -0.37331,-0.0669 -0.74155,-0.14788 -1.0992,-0.24275 h -1.3e-4 c -0.35767,-0.0949 -0.70469,-0.20365 -1.0357,-0.32633 h -1.3e-4 l -1.2111,-0.44922 h -1.3e-4 l -0.1519,-2.0361 c -0.0314,-0.42181 -0.0524,-0.76453 -0.061,-1.0466 -0.009,-0.28212 -0.005,-0.50365 0.013,-0.68324 0.009,-0.0898 0.0214,-0.16921 0.0376,-0.24037 0.0162,-0.0712 0.0362,-0.13405 0.0603,-0.19124 l 1.3e-4,-1.4e-4 c 0.024,-0.0571 0.052,-0.10859 0.0842,-0.1564 0.0323,-0.0479 0.0687,-0.0922 0.10966,-0.13535 0.10879,-0.11468 0.23527,-0.26107 0.35122,-0.40447 0.11595,-0.14339 0.22139,-0.28383 0.28845,-0.38671 0.026,-0.0399 0.0544,-0.075 0.0878,-0.10569 h 1.3e-4 c 0.0334,-0.0307 0.0717,-0.057 0.11774,-0.0789 h 1.3e-4 c 0.0461,-0.0219 0.0999,-0.0397 0.16395,-0.0532 h 1.4e-4 c 0.0641,-0.0135 0.13851,-0.0229 0.22593,-0.0283 h 1.4e-4 c 0.17494,-0.0109 0.4019,-0.006 0.70191,0.0135 h 1.3e-4 c 0.30005,0.0195 0.67321,0.0535 1.1407,0.10078 h 1.3e-4 c 0.35489,0.0359 0.69633,0.0641 1.0252,0.0845 h 1.3e-4 c 0.32886,0.0204 0.64505,0.0332 0.94944,0.038 h 1.3e-4 c 0.30438,0.005 0.597,0.002 0.87845,-0.009 h 1.3e-4 c 0.28145,-0.0109 0.55178,-0.0298 0.81184,-0.0567 h 1.3e-4 c 0.26006,-0.0269 0.50987,-0.0617 0.75013,-0.10463 h 1.3e-4 c 0.24025,-0.0429 0.47096,-0.0939 0.69277,-0.15309 h 1.4e-4 c 0.22182,-0.0592 0.43482,-0.12661 0.6398,-0.20224 h 1.3e-4 c 0.20498,-0.0756 0.40189,-0.15951 0.5916,-0.25163 h 1.3e-4 c 0.10653,-0.0517 0.21206,-0.10896 0.31599,-0.17071 h 1.4e-4 c 0.10393,-0.0617 0.20625,-0.12816 0.30632,-0.19799 h 1.3e-4 c 0.20018,-0.13967 0.39134,-0.29358 0.56855,-0.45386 0.17724,-0.16029 0.34047,-0.32691 0.48459,-0.49213 0.14412,-0.16523 0.26916,-0.32907 0.3699,-0.4838 0.10073,-0.15473 0.17722,-0.30024 0.22448,-0.42883 0.0236,-0.0643 0.04,-0.12436 0.0483,-0.17918 0.008,-0.0548 0.009,-0.1044 5.3e-4,-0.1478 -0.008,-0.0434 -0.025,-0.0807 -0.051,-0.11085 -0.026,-0.0301 -0.0611,-0.0531 -0.10609,-0.0678 h -1.3e-4 c -0.045,-0.0147 -0.0999,-0.0212 -0.16528,-0.0187 h -1.3e-4 c -0.0654,0.003 -0.14135,0.0142 -0.22832,0.0359 h -1.4e-4 c -0.2554,0.0638 -0.51981,0.12449 -0.79078,0.18183 h -1.3e-4 c -0.27097,0.0574 -0.54846,0.1114 -0.82998,0.16211 h -1.3e-4 c -0.56314,0.10143 -1.1424,0.18941 -1.7177,0.26328 -0.57528,0.0739 -1.1466,0.13377 -1.6941,0.17892 h -1.3e-4 c -0.54749,0.0451 -1.0712,0.0756 -1.5511,0.0907 h -1.3e-4 c -0.4799,0.0151 -0.91599,0.0147 -1.2883,-0.002 h -1.4e-4 c -0.18614,-0.008 -0.35639,-0.0202 -0.50816,-0.0364 h -1.3e-4 c -0.15179,-0.0162 -0.28506,-0.0364 -0.39744,-0.0608 -0.11234,-0.0244 -0.20379,-0.0529 -0.27176,-0.0857 h -1.3e-4 c -0.034,-0.0164 -0.062,-0.0338 -0.084,-0.0523 v 1.4e-4 h -1.4e-4 v -1.4e-4 c -0.0219,-0.0185 -0.0377,-0.0379 -0.047,-0.0585 v -1.3e-4 c -0.009,-0.0206 -0.0122,-0.0423 -0.008,-0.065 v -1.3e-4 c 0.004,-0.0227 0.0149,-0.0465 0.0327,-0.0714 v -1.3e-4 h 1.4e-4 c 0.0358,-0.0499 0.0999,-0.10414 0.19494,-0.1629 0.0335,-0.0207 0.0656,-0.0726 0.0948,-0.14872 v -1.4e-4 c 0.0292,-0.0761 0.0556,-0.17649 0.0777,-0.29387 0.0222,-0.11738 0.0402,-0.25183 0.0527,-0.39625 0.0125,-0.14443 0.0195,-0.29883 0.0196,-0.45612 2.6e-4,-0.28296 0.001,-0.49601 0.0199,-0.6639 v -1.3e-4 c 0.009,-0.0839 0.0232,-0.15658 0.0437,-0.22091 v -1.3e-4 c 0.0102,-0.0321 0.028,-0.057 0.0418,-0.0854 v -1.4e-4 c 0.0138,-0.0284 0.0238,-0.0601 0.0417,-0.0855 v -1.3e-4 c 0.0359,-0.0509 0.0806,-0.0965 0.13628,-0.13999 v -1.3e-4 h 1.3e-4 c 0.0557,-0.0435 0.12228,-0.0849 0.20197,-0.12714 h 1.3e-4 c 0.15944,-0.0844 0.37124,-0.17243 0.65265,-0.28818 h 1.3e-4 c 0.2069,-0.0851 0.39375,-0.1668 0.56246,-0.24739 h 1.3e-4 c 0.1687,-0.0806 0.31924,-0.16016 0.4532,-0.24077 h 1.3e-4 c 0.13396,-0.0806 0.25144,-0.16242 0.35427,-0.24739 h 1.3e-4 c 0.1028,-0.085 0.19092,-0.17312 0.26607,-0.26686 v -1.4e-4 c 0.0752,-0.0938 0.13738,-0.19301 0.18846,-0.29997 v -1.3e-4 c 0.0511,-0.10695 0.0911,-0.2215 0.12157,-0.34605 v -1.4e-4 c 0.0305,-0.12456 0.0516,-0.25912 0.065,-0.40579 v -1.3e-4 c 0.0135,-0.14667 0.0193,-0.3055 0.0193,-0.47849 v -1.3e-4 c 0,-0.19752 -0.0155,-0.39126 -0.0422,-0.58736 -0.002,-0.0152 -0.001,-0.0303 -0.003,-0.0456 v -1.3e-4 c -0.0312,-0.21177 -0.0792,-0.42694 -0.14634,-0.65371 v -1.3e-4 c -0.0243,-0.082 -0.0651,-0.17602 -0.0946,-0.26143 -0.052,-0.15072 -0.0981,-0.2968 -0.167,-0.46128 v -1.3e-4 c -0.10791,-0.2577 -0.23737,-0.53477 -0.39056,-0.83925 v -1.3e-4 c -0.13464,-0.26762 -0.26388,-0.55062 -0.38751,-0.84826 v -1.3e-4 c -0.12362,-0.29765 -0.24165,-0.60995 -0.354,-0.9362 v -1.3e-4 c -0.11235,-0.32626 -0.21912,-0.66639 -0.31983,-1.0198 v -1.4e-4 c -0.10072,-0.35338 -0.19554,-0.71996 -0.28421,-1.099 v -1.3e-4 c -0.0887,-0.379 -0.17117,-0.77039 -0.2474,-1.1735 v -1.3e-4 c -0.0762,-0.40314 -0.14616,-0.81799 -0.20978,-1.2438 v -1.3e-4 c -0.0636,-0.42587 -0.12086,-0.86279 -0.1715,-1.3099 v -1.4e-4 c -0.0506,-0.44714 -0.0947,-0.90456 -0.13191,-1.3714 v -1.3e-4 c -0.0517,-0.64966 -0.12007,-1.3502 -0.20011,-2.0667 v -1.3e-4 c -0.08,-0.71646 -0.17177,-1.4488 -0.27044,-2.162 v -1.3e-4 c -0.0836,-0.60459 -0.17365,-1.1796 -0.26421,-1.7353 -0.0163,-0.0998 -0.0312,-0.21431 -0.0475,-0.31176 v -1.3e-4 c -0.0203,-0.12036 -0.0406,-0.20764 -0.0609,-0.32394 -0.0878,-0.50189 -0.17642,-0.99488 -0.26315,-1.398 v -1.3e-4 z m -7.6081,9.8194 c 0.0721,-0.001 0.14365,-2.3e-4 0.21455,0.003 h 1.3e-4 c 0.14185,0.006 0.28099,0.0198 0.41665,0.0415 0.13565,0.0217 0.26773,0.0511 0.39532,0.0881 0.1276,0.0369 0.25068,0.0815 0.36844,0.13323 0.11776,0.0517 0.23024,0.11084 0.33652,0.17693 0.10629,0.0661 0.20642,0.13907 0.29944,0.21892 v 1.4e-4 c 0.093,0.0798 0.17904,0.16641 0.25693,0.25957 0.0779,0.0932 0.14788,0.19292 0.20899,0.29891 0.0611,0.106 0.11325,0.21817 0.15574,0.33639 v 1.3e-4 c 0.0425,0.11818 0.0754,0.24237 0.0975,0.37228 0.0221,0.12995 0.0335,0.26564 0.0335,0.40685 0,0.10135 -0.008,0.19154 -0.0265,0.27096 v 1.4e-4 c -0.0183,0.0794 -0.0468,0.14804 -0.0873,0.2062 -0.0405,0.0582 -0.0931,0.1059 -0.15958,0.14356 -0.0665,0.0377 -0.14701,0.0653 -0.24342,0.0832 -0.0964,0.0179 -0.20875,0.026 -0.33891,0.0248 -0.13016,-10e-4 -0.27816,-0.0117 -0.44591,-0.0313 -0.16775,-0.0196 -0.35526,-0.0481 -0.56445,-0.0853 -0.20918,-0.0372 -0.44004,-0.0832 -0.6945,-0.13733 -0.53649,-0.11422 -1.1291,-0.22033 -1.6518,-0.29931 -0.26132,-0.0395 -0.50515,-0.0722 -0.71569,-0.0958 -0.21053,-0.0236 -0.38777,-0.038 -0.51597,-0.0408 -0.15283,-0.003 -0.28526,-0.015 -0.39731,-0.035 -0.11205,-0.02 -0.2037,-0.0481 -0.2752,-0.0841 -0.0357,-0.018 -0.0664,-0.0378 -0.092,-0.0596 v -1.3e-4 c -0.0256,-0.0218 -0.0463,-0.0455 -0.0618,-0.0711 -0.0155,-0.0256 -0.026,-0.0533 -0.0314,-0.0826 -0.005,-0.0294 -0.006,-0.0606 -0.001,-0.0936 v -1.3e-4 c 0.01,-0.0662 0.0391,-0.13971 0.089,-0.22024 0.0499,-0.0805 0.11988,-0.16807 0.21004,-0.26223 0.0902,-0.0941 0.20062,-0.19497 0.33109,-0.30221 0.13047,-0.10725 0.28098,-0.22093 0.45148,-0.34077 0.14226,-0.1 0.28714,-0.19033 0.43373,-0.27136 0.14659,-0.081 0.29488,-0.15266 0.44406,-0.21534 h 1.3e-4 c 0.14915,-0.0627 0.29912,-0.11644 0.4491,-0.16131 h 1.3e-4 c 0.14997,-0.0449 0.29996,-0.0809 0.44896,-0.10833 h 1.3e-4 c 0.149,-0.0274 0.29706,-0.0463 0.44327,-0.0568 h 1.3e-4 c 0.0731,-0.005 0.14576,-0.009 0.21786,-0.01 z m 16.717,16.701 c 0.0268,-2.8e-4 0.0514,6e-5 0.0734,9.3e-4 0.044,0.002 0.0782,0.006 0.10145,0.0123 0.0232,0.007 0.0354,0.0156 0.0354,0.0272 -3e-5,0.0391 -0.0135,0.0833 -0.0391,0.13151 -0.0256,0.0483 -0.0633,0.10068 -0.11204,0.15628 -0.0488,0.0556 -0.10848,0.11432 -0.178,0.17548 -0.0695,0.0611 -0.14892,0.12472 -0.23679,0.18965 -0.17576,0.12985 -0.38573,0.26539 -0.62047,0.39969 -0.23474,0.13429 -0.49417,0.26731 -0.7688,0.39188 -0.11414,0.0518 -0.22408,0.0983 -0.3336,0.13999 -0.10952,0.0417 -0.21864,0.0786 -0.33123,0.11111 -0.11259,0.0325 -0.22865,0.0608 -0.35201,0.085 -0.12337,0.0243 -0.25403,0.0447 -0.39586,0.0616 -0.28365,0.0338 -0.61194,0.0539 -1.0158,0.0638 -0.40384,0.01 -0.88323,0.01 -1.469,0.003 -0.91359,-0.0102 -1.6219,-0.0221 -2.1755,-0.0452 -0.2768,-0.0115 -0.51499,-0.0258 -0.72072,-0.0441 -0.20575,-0.0183 -0.37913,-0.0406 -0.52644,-0.0679 -0.14731,-0.0274 -0.26854,-0.0598 -0.37003,-0.0987 -0.10149,-0.0388 -0.18321,-0.084 -0.2515,-0.13654 -0.0683,-0.0526 -0.1232,-0.11269 -0.17097,-0.18144 v -1.4e-4 c -0.0477,-0.0687 -0.0884,-0.14606 -0.12807,-0.23322 v -1.3e-4 c -0.0393,-0.0862 -0.0928,-0.16864 -0.1572,-0.24487 -0.0644,-0.0763 -0.13971,-0.14642 -0.22289,-0.20806 -0.0832,-0.0617 -0.17408,-0.11478 -0.26964,-0.15707 -0.0956,-0.0423 -0.19591,-0.0737 -0.29772,-0.0921 -0.094,-0.0169 -0.1323,-0.0284 -0.12118,-0.0347 0.0111,-0.006 0.0717,-0.008 0.17548,-0.004 0.20752,0.008 0.58779,0.035 1.0908,0.0804 0.31925,0.0288 0.6558,0.0521 1.0043,0.0701 0.34845,0.0179 0.70883,0.0304 1.0759,0.0378 0.36709,0.007 0.74091,0.01 1.116,0.007 0.37513,-0.003 0.75164,-0.0108 1.1242,-0.0236 0.3726,-0.0127 0.74121,-0.0303 1.1007,-0.0526 0.35947,-0.0222 0.70972,-0.0492 1.0455,-0.0805 0.33574,-0.0314 0.65702,-0.0672 0.95844,-0.10727 0.30142,-0.0401 0.58303,-0.0845 0.83952,-0.13297 0.23836,-0.0451 0.46595,-0.0834 0.67317,-0.11403 0.20723,-0.0306 0.39409,-0.0537 0.55121,-0.0682 0.11784,-0.0109 0.21884,-0.0169 0.29917,-0.0178 z"
         id="path1"
         style="fill:#ffffff" /><path
         d="m -127.22,216.67 1.3e-4,1.3e-4 c -0.11689,-0.001 -0.23324,0.005 -0.34685,0.0189 -0.11361,0.0137 -0.22448,0.0348 -0.33043,0.0634 -0.10596,0.0286 -0.20687,0.0647 -0.30063,0.10833 h -1.4e-4 c -0.0937,0.0436 -0.18026,0.0947 -0.25745,0.1531 -0.11158,0.0844 -0.19394,0.14908 -0.2421,0.19905 -0.0241,0.025 -0.0396,0.0463 -0.046,0.0646 -0.006,0.0183 -0.004,0.0335 0.009,0.0464 0.0251,0.0258 0.0892,0.042 0.19747,0.0536 0.10822,0.0117 0.26047,0.0188 0.46167,0.0264 0.23472,0.009 0.51671,0.0388 0.78191,0.08 0.26514,0.0412 0.5136,0.0936 0.68125,0.14726 h 1.4e-4 c 0.16341,0.0523 0.31196,0.0932 0.44498,0.12317 h 1.4e-4 c 0.13304,0.03 0.25043,0.0492 0.35162,0.0583 0.10119,0.009 0.18607,0.008 0.25374,-0.003 0.0677,-0.0105 0.11808,-0.0304 0.15058,-0.0588 0.0162,-0.0143 0.0281,-0.0308 0.0352,-0.0494 0.007,-0.0186 0.01,-0.0392 0.008,-0.0618 -0.004,-0.0453 -0.0273,-0.0987 -0.0699,-0.15932 -0.0426,-0.0606 -0.10475,-0.12844 -0.18726,-0.20289 -0.0362,-0.0327 -0.0917,-0.0713 -0.13588,-0.10648 -0.0564,-0.0449 -0.10403,-0.0871 -0.17363,-0.13588 -0.0854,-0.0598 -0.17918,-0.11241 -0.27917,-0.1576 -0.1,-0.0452 -0.2061,-0.083 -0.31613,-0.1135 -0.11003,-0.0305 -0.22401,-0.0535 -0.3397,-0.0693 -0.11569,-0.0157 -0.23314,-0.0241 -0.35003,-0.025 z"
         id="path2"
         style="fill:#ffffff" /><path
         d="m -108.33,218.11 c -9e-5,-0.0269 -0.0196,-0.0688 -0.055,-0.12185 v -1.3e-4 c -0.0355,-0.0532 -0.0869,-0.11736 -0.15018,-0.18832 -0.12673,-0.14199 -0.30159,-0.31101 -0.49386,-0.4728 -0.10679,-0.0899 -0.21424,-0.17431 -0.32209,-0.25335 -0.10784,-0.079 -0.21602,-0.1527 -0.32433,-0.22091 -0.10832,-0.0682 -0.21681,-0.13098 -0.325,-0.18832 -0.10819,-0.0574 -0.21607,-0.10929 -0.32355,-0.15575 -0.10747,-0.0465 -0.21446,-0.0875 -0.32062,-0.12303 -0.10617,-0.0356 -0.2115,-0.0657 -0.31573,-0.0903 -0.10424,-0.0247 -0.20741,-0.0439 -0.30911,-0.0576 -0.10171,-0.0137 -0.20207,-0.022 -0.30063,-0.0247 v 3.9e-4 c -0.0986,-0.003 -0.19535,-1.9e-4 -0.29017,0.008 -0.0948,0.008 -0.18762,0.0218 -0.27812,0.0409 -0.0905,0.0191 -0.17864,0.0437 -0.26421,0.0738 -0.0856,0.0301 -0.16855,0.0657 -0.24858,0.10688 -0.08,0.0411 -0.15717,0.0878 -0.23111,0.13999 -0.0739,0.0522 -0.14468,0.10987 -0.2119,0.17309 -0.0672,0.0632 -0.13098,0.13182 -0.19084,0.20607 v 1.3e-4 c -0.0599,0.0742 -0.1159,0.154 -0.16779,0.23932 v 1.3e-4 c -0.0868,0.14269 -0.15507,0.26695 -0.20541,0.37705 -2e-5,3e-5 1e-5,1e-4 0,1.3e-4 v 1.3e-4 c -3e-5,6e-5 -1.1e-4,1.8e-4 -1.4e-4,2.6e-4 -2e-5,8e-5 3e-5,1.4e-4 0,2.6e-4 -0.0503,0.11012 -0.0828,0.20586 -0.0983,0.29123 0,3e-5 1e-5,9e-5 0,1.3e-4 v 1.3e-4 c -0.0154,0.0851 -0.0138,0.1598 0.004,0.22832 v 1.3e-4 c 0.018,0.0687 0.0524,0.13123 0.10225,0.19151 0.0369,0.0446 0.0843,0.0831 0.13826,0.11482 0.054,0.0317 0.11463,0.0564 0.178,0.0732 0.0634,0.0169 0.12947,0.026 0.19454,0.0261 0.0651,8e-5 0.12907,-0.009 0.18833,-0.0278 0.0593,-0.0188 0.17476,-0.0373 0.33268,-0.0546 0.15792,-0.0173 0.35828,-0.0333 0.58723,-0.0473 0.45789,-0.028 1.0302,-0.0477 1.6063,-0.0524 0.28808,-0.002 0.56312,-0.0102 0.81356,-0.0222 0.25044,-0.012 0.47628,-0.0283 0.66616,-0.0475 0.18988,-0.0193 0.34375,-0.0417 0.45015,-0.066 0.0532,-0.0121 0.0946,-0.0247 0.12264,-0.0376 0.028,-0.0129 0.0424,-0.0261 0.0425,-0.0395 z m -3.2663,-1.3472 c 0.0947,0.005 0.19334,0.0187 0.29732,0.0414 0.10398,0.0228 0.21319,0.0545 0.32871,0.0948 0.11552,0.0404 0.23732,0.0894 0.36659,0.147 l 0.93261,0.41585 -1.0974,0.18674 c -0.30177,0.0514 -0.65583,0.10008 -0.98321,0.1372 -0.32737,0.0371 -0.62801,0.0626 -0.82282,0.0675 -0.17254,0.005 -0.30236,0.007 -0.39334,0.001 -0.0455,-0.003 -0.0812,-0.008 -0.10781,-0.0162 -0.0266,-0.008 -0.0441,-0.0192 -0.0528,-0.034 v -1.3e-4 c -0.009,-0.0148 -0.009,-0.0334 -5.1e-4,-0.0567 v -1.3e-4 c 0.008,-0.0233 0.0245,-0.0511 0.0486,-0.0845 v -1.3e-4 -1.3e-4 c 0.0482,-0.0668 0.12741,-0.15549 0.23348,-0.27269 v -1.3e-4 c 0.0813,-0.0899 0.16123,-0.16971 0.24078,-0.23998 v -1.3e-4 c 0.0796,-0.0703 0.15876,-0.13086 0.23878,-0.18184 0.08,-0.051 0.16076,-0.0924 0.24342,-0.12436 0.0827,-0.032 0.16725,-0.0547 0.2548,-0.0681 0.0876,-0.0134 0.17816,-0.0177 0.27283,-0.0128 z"
         id="path3"
         style="fill:#ffffff" /></g></g></svg>
