<?xml version="1.0" encoding="UTF-8" standalone="no"?>
<!-- Created with Inkscape (http://www.inkscape.org/) -->

<svg
   width="68.445999mm"
   height="68.446014mm"
   version="1.1"
   viewBox="0 0 68.446001 68.446014"
   xml:space="preserve"
   id="svg16"
   sodipodi:docname="handicapIcon.svg"
   inkscape:version="1.3-beta (cedbd6c6ff, 2023-05-28)"
   xmlns:inkscape="http://www.inkscape.org/namespaces/inkscape"
   xmlns:sodipodi="http://sodipodi.sourceforge.net/DTD/sodipodi-0.dtd"
   xmlns="http://www.w3.org/2000/svg"
   xmlns:svg="http://www.w3.org/2000/svg"><defs
     id="defs16" /><sodipodi:namedview
     id="namedview16"
     pagecolor="#ffffff"
     bordercolor="#666666"
     borderopacity="1.0"
     inkscape:showpageshadow="2"
     inkscape:pageopacity="0.0"
     inkscape:pagecheckerboard="0"
     inkscape:deskcolor="#d1d1d1"
     inkscape:document-units="mm"
     inkscape:zoom="0.4012831"
     inkscape:cx="9.9680251"
     inkscape:cy="532.04334"
     inkscape:window-width="1366"
     inkscape:window-height="705"
     inkscape:window-x="1432"
     inkscape:window-y="-8"
     inkscape:window-maximized="1"
     inkscape:current-layer="svg16" /><g
     id="g338"
     transform="translate(297.46741,-102.79093)"
     inkscape:export-filename="visual.png"
     inkscape:export-xdpi="190.00087"
     inkscape:export-ydpi="190.00087"><circle
       style="fill:#065ad8;fill-opacity:1;stroke-width:0.147301;stroke-linecap:round;stroke-linejoin:round"
       id="circle335"
       cx="-263.24442"
       cy="137.01393"
       r="34.223" /><path
       d="m -266.56254,112.43395 c -0.20989,0.009 -0.47852,0.0623 -0.83072,0.13766 -0.80874,0.17301 -1.5033,0.34284 -1.54301,0.37726 -0.0199,0.0178 0.0542,0.46913 0.19,1.18318 0.13571,0.71406 0.33313,1.69025 0.55902,2.75652 0.18889,0.89149 0.33106,1.57959 0.42684,2.11029 0.0478,0.26534 0.0844,0.49148 0.10924,0.68385 0.0249,0.19237 0.0377,0.35101 0.0394,0.4819 0.002,0.13091 -0.007,0.2338 -0.0284,0.31485 -0.021,0.081 -0.0536,0.14015 -0.0973,0.18267 -0.0435,0.0425 -0.0981,0.0682 -0.1643,0.0835 -0.0663,0.016 -0.14388,0.0203 -0.23224,0.0203 -0.19579,0 -0.44383,0.0236 -0.7334,0.067 -0.28959,0.0435 -0.62033,0.10658 -0.9831,0.18724 -0.36275,0.0806 -0.75774,0.17858 -1.17309,0.29006 -0.41537,0.11155 -0.8515,0.23659 -1.29885,0.37268 -0.44738,0.13607 -0.9053,0.28336 -1.36402,0.43786 -0.45875,0.15453 -0.9182,0.31623 -1.3677,0.48281 -0.44953,0.16661 -0.88926,0.33797 -1.30896,0.51036 -0.41968,0.1723 -0.81943,0.3458 -1.1887,0.51771 -0.31457,0.14637 -0.63137,0.30156 -0.94912,0.46539 -0.31778,0.16377 -0.63611,0.33682 -0.95557,0.51679 -0.63889,0.35994 -1.28002,0.75049 -1.91661,1.16758 -0.63656,0.41711 -1.26886,0.8605 -1.8909,1.32455 -0.62205,0.46408 -1.23385,0.94879 -1.8294,1.44939 -0.59557,0.50061 -1.17523,1.01692 -1.73212,1.54395 -0.5569,0.52702 -1.09105,1.06479 -1.59718,1.60819 -0.25307,0.27169 -0.49899,0.5449 -0.73709,0.81879 -0.23809,0.27387 -0.46867,0.5486 -0.69028,0.82336 -0.2216,0.27477 -0.43431,0.5499 -0.63795,0.8243 -0.20361,0.27438 -0.39783,0.54787 -0.58196,0.8206 l -1.19787,1.77434 1.73394,2.51694 c 0.44902,0.65193 0.89808,1.25917 1.31814,1.79177 0.21001,0.2663 0.41273,0.51371 0.60489,0.73893 0.19218,0.22521 0.37341,0.42826 0.54066,0.60491 0.16733,0.17656 0.32009,0.32735 0.45528,0.44794 0.13518,0.12061 0.25278,0.21104 0.34881,0.26802 0.048,0.0284 0.0906,0.0485 0.12754,0.0597 0.0369,0.0106 0.0678,0.0142 0.0927,0.007 0.0249,-0.007 0.0439,-0.0234 0.0559,-0.0496 0.0124,-0.0261 0.0178,-0.062 0.016,-0.10835 -0.004,-0.11688 -0.0822,-0.56631 -0.20379,-1.19604 -0.1215,-0.62974 -0.28661,-1.43985 -0.4663,-2.27827 -0.11474,-0.53558 -0.2043,-1.00518 -0.26804,-1.4145 -0.0638,-0.40935 -0.10178,-0.75846 -0.11474,-1.05378 -0.007,-0.14761 -0.007,-0.28151 -9.3e-4,-0.40297 0.005,-0.1215 0.0183,-0.2309 0.0368,-0.32769 0.0185,-0.0968 0.0435,-0.1815 0.0744,-0.25519 0.0309,-0.0737 0.0678,-0.13607 0.11101,-0.18817 0.0828,-0.0996 0.16573,-0.18636 0.24693,-0.25978 0.0812,-0.0734 0.16039,-0.13357 0.23773,-0.18082 0.0773,-0.0472 0.15223,-0.0814 0.22305,-0.10285 0.0707,-0.0213 0.13748,-0.03 0.19919,-0.0258 0.0616,0.004 0.11866,0.0213 0.16893,0.0513 0.0503,0.03 0.0936,0.0732 0.12949,0.1286 0.0359,0.0552 0.0643,0.12328 0.0835,0.20378 0.0194,0.0805 0.0293,0.17354 0.0293,0.27905 0,0.0945 0.0282,0.31613 0.0789,0.63612 0.0506,0.31998 0.12363,0.73868 0.21388,1.22542 0.18065,0.97347 0.4298,2.22127 0.70404,3.5092 0.23231,1.09095 0.41807,1.93383 0.59023,2.60228 0.0861,0.33423 0.16892,0.62513 0.25242,0.88121 0.0835,0.25607 0.16768,0.4775 0.25701,0.67375 0.0894,0.19624 0.18371,0.36756 0.28732,0.52229 0.10355,0.15472 0.21649,0.29288 0.34237,0.42409 0.12594,0.13127 0.26558,0.25486 0.42224,0.38092 0.15667,0.12612 0.3303,0.25458 0.52598,0.3938 0.46197,0.3287 0.89741,0.61195 1.22632,0.80409 0.16449,0.0961 0.30247,0.16928 0.40389,0.21388 0.10143,0.0446 0.16591,0.0608 0.1845,0.0423 0.0185,-0.0185 -0.0106,-0.25209 -0.078,-0.65724 -0.0677,-0.40514 -0.17461,-0.98156 -0.3121,-1.68805 -0.27486,-1.41298 -0.67225,-3.34372 -1.12628,-5.45059 -0.20555,-0.95377 -0.38659,-1.81123 -0.54342,-2.58303 -0.15684,-0.77177 -0.28932,-1.45818 -0.39836,-2.06806 -0.10907,-0.60987 -0.19479,-1.1438 -0.25703,-1.61185 -0.0622,-0.46807 -0.10107,-0.86995 -0.11741,-1.21626 -0.016,-0.3463 -0.0107,-0.63658 0.0183,-0.88119 0.0142,-0.12238 0.0345,-0.23344 0.0597,-0.33412 0.0252,-0.10071 0.0556,-0.19104 0.0918,-0.27262 0.0362,-0.0815 0.0778,-0.15436 0.12487,-0.21939 0.0471,-0.065 0.10018,-0.12167 0.15791,-0.17248 0.0577,-0.0508 0.12079,-0.0956 0.18909,-0.13499 0.0684,-0.0393 0.14157,-0.0735 0.22031,-0.10374 0.10107,-0.0389 0.18825,-0.0785 0.26712,-0.0973 0.0394,-0.009 0.0765,-0.0124 0.11297,-0.009 0.0364,0.004 0.0716,0.016 0.1064,0.0386 0.035,0.0229 0.0694,0.0563 0.10462,0.10373 0.0352,0.0474 0.0712,0.10889 0.10835,0.18633 0.0743,0.15489 0.15365,0.37538 0.24509,0.68385 0.0915,0.30847 0.19475,0.70515 0.31668,1.21166 0.12185,0.50652 0.26212,1.12264 0.42774,1.87162 0.33126,1.49801 0.76341,3.52567 1.34843,6.26021 0.262,1.2247 0.52176,2.40164 0.76739,3.48075 0.24562,1.07909 0.47744,2.06027 0.682,2.89327 0.20456,0.833 0.38257,1.51833 0.52137,2.00473 0.0695,0.2432 0.12878,0.43598 0.1771,0.5737 0.0483,0.13766 0.0851,0.21992 0.10924,0.23957 0.0982,0.0799 0.21759,0.16128 0.35158,0.24141 0.13393,0.0801 0.28276,0.15844 0.43876,0.23408 0.31198,0.15134 0.65413,0.2895 0.97206,0.39561 0.15898,0.0531 0.31176,0.0982 0.45162,0.13304 0.1398,0.035 0.26659,0.0595 0.37359,0.0716 0.10693,0.0124 0.1948,0.0124 0.25518,-0.004 0.0302,-0.007 0.0538,-0.0187 0.0698,-0.0339 0.016,-0.016 0.0238,-0.0343 0.0238,-0.0579 0,-0.11119 -0.16146,-0.97189 -0.42131,-2.26909 -0.25987,-1.2972 -0.61817,-3.03083 -1.01247,-4.88791 -0.88517,-4.16882 -1.53875,-7.22926 -2.00749,-9.48483 -0.23437,-1.12779 -0.42237,-2.05455 -0.57003,-2.81801 -0.14761,-0.76346 -0.25514,-1.36346 -0.32769,-1.83859 -0.0725,-0.47514 -0.1103,-0.82507 -0.11936,-1.08772 -0.005,-0.13127 -0.002,-0.24071 0.007,-0.33322 0.009,-0.0925 0.0245,-0.16803 0.0458,-0.2313 0.0215,-0.0632 0.0487,-0.1144 0.0808,-0.15791 0.0322,-0.0434 0.0696,-0.0789 0.11102,-0.11209 0.0829,-0.0661 0.18285,-0.12114 0.29465,-0.20287 0.2221,-0.16235 0.45695,-0.31047 0.6563,-0.41765 0.0997,-0.0537 0.19029,-0.0966 0.26619,-0.12665 0.0759,-0.03 0.13713,-0.0467 0.1771,-0.0467 0.0201,0 0.0472,0.0352 0.0808,0.10285 0.0336,0.0675 0.0734,0.16732 0.11847,0.29557 0.0902,0.25657 0.20149,0.62804 0.32679,1.08589 0.12522,0.45786 0.26509,1.00247 0.4103,1.60636 0.14512,0.6039 0.2961,1.26692 0.44611,1.9616 0.60001,2.77871 1.45554,6.74414 1.90101,8.812 0.65861,3.05717 1.13673,5.30091 1.5063,6.95231 0.18479,0.82569 0.34213,1.50375 0.48191,2.06072 0.13979,0.55697 0.26161,0.99312 0.37451,1.33649 0.0565,0.17176 0.11119,0.32026 0.1643,0.44886 0.0531,0.12861 0.1048,0.23708 0.15703,0.32954 0.052,0.0925 0.10462,0.1691 0.15791,0.23223 0.0533,0.0632 0.10746,0.11333 0.1643,0.15418 0.0568,0.0409 0.11546,0.0726 0.17807,0.0982 0.0625,0.0256 0.12861,0.0444 0.1992,0.0615 0.14103,0.0339 0.30063,0.0581 0.48741,0.0991 0.18858,0.0414 0.37454,0.0746 0.54983,0.0991 0.17532,0.0245 0.3401,0.0409 0.48465,0.0478 0.14459,0.007 0.26893,0.004 0.36535,-0.007 0.0965,-0.0124 0.16466,-0.0325 0.19551,-0.0634 0.0238,-0.024 0.0393,-0.0746 0.0449,-0.15703 0.005,-0.0822 0.002,-0.19596 -0.0124,-0.34422 -0.0281,-0.29652 -0.0973,-0.73266 -0.21296,-1.33832 -0.11546,-0.60566 -0.27759,-1.38138 -0.49199,-2.35629 -0.21442,-0.97493 -0.48116,-2.14907 -0.80593,-3.55327 l -0.24785,-1.06937 1.56229,1.02347 c 0.17443,0.1144 0.33055,0.22163 0.47182,0.32862 0.14121,0.10693 0.26777,0.21375 0.38184,0.32587 0.11404,0.11208 0.21568,0.2295 0.30844,0.3589 0.0927,0.12931 0.17674,0.27079 0.25425,0.42959 0.0776,0.1588 0.14921,0.33556 0.21754,0.53606 0.0684,0.20049 0.13322,0.42482 0.19829,0.67925 0.13002,0.50889 0.25951,1.13783 0.41213,1.9359 0.17017,0.88983 0.29829,1.55764 0.41949,2.06164 0.0606,0.252 0.11919,0.46355 0.18084,0.6407 0.0616,0.1771 0.12594,0.32021 0.19735,0.43693 0.0712,0.1167 0.14974,0.20646 0.23958,0.27721 0.0899,0.0707 0.19109,0.12256 0.30841,0.16146 0.11724,0.0391 0.25037,0.0654 0.4039,0.0872 0.15347,0.0217 0.32745,0.0389 0.52595,0.0579 0.39354,0.0377 0.6898,0.0652 0.90782,0.0606 0.10907,-0.002 0.19845,-0.0124 0.2708,-0.0339 0.0723,-0.0208 0.12753,-0.0519 0.16803,-0.0965 0.0405,-0.0446 0.0664,-0.10249 0.0799,-0.1762 0.0142,-0.0737 0.0142,-0.1636 0.005,-0.2717 -0.0178,-0.21628 -0.0741,-0.50633 -0.15151,-0.89221 -0.24357,-1.21487 -0.42512,-2.13997 -0.54157,-2.84462 -0.0583,-0.35234 -0.10072,-0.64989 -0.12576,-0.90049 -0.0251,-0.25059 -0.033,-0.45444 -0.0238,-0.6205 0.009,-0.16609 0.0359,-0.29417 0.0799,-0.39288 0.022,-0.0494 0.048,-0.0909 0.0789,-0.12665 0.0309,-0.0357 0.0664,-0.0657 0.10658,-0.0899 0.0801,-0.0487 0.17836,-0.0769 0.29557,-0.0927 0.11724,-0.016 0.25346,-0.0194 0.40848,-0.0194 0.15453,0 0.2869,-0.009 0.40572,9.2e-4 0.0593,0.005 0.11528,0.0142 0.16892,0.0322 0.0536,0.0178 0.10516,0.0437 0.15507,0.0808 0.0499,0.0371 0.0986,0.086 0.1469,0.14957 0.0483,0.0636 0.0963,0.14174 0.14512,0.23866 0.0977,0.19373 0.19852,0.46099 0.31024,0.82888 0.11173,0.36787 0.23467,0.83606 0.37727,1.43285 0.14263,0.59681 0.30461,1.32242 0.49476,2.20301 0.38029,1.76117 0.8726,4.14452 1.54302,7.36996 0.0583,0.28067 0.11368,0.52956 0.16892,0.74902 0.0553,0.21946 0.11049,0.40945 0.16982,0.57278 0.0593,0.16324 0.12238,0.30042 0.19276,0.41306 0.0703,0.11261 0.14778,0.20086 0.23589,0.26804 0.0881,0.0671 0.18647,0.11261 0.29925,0.13944 0.11279,0.027 0.23994,0.0353 0.3846,0.0275 0.14459,-0.009 0.30752,-0.0318 0.49109,-0.0689 0.18356,-0.037 0.38779,-0.0872 0.61684,-0.14868 l 0.99777,-0.26804 -0.86835,-3.83781 c -0.23875,-1.05546 -0.45728,-2.04833 -0.61683,-2.79689 -0.15951,-0.74856 -0.26013,-1.25279 -0.26346,-1.33281 -8.8e-4,-0.0201 0.009,-0.041 0.0284,-0.0634 0.0197,-0.0222 0.0492,-0.046 0.0872,-0.0698 0.076,-0.0476 0.18665,-0.0977 0.32401,-0.1469 0.13731,-0.0492 0.30174,-0.0973 0.48375,-0.14228 0.18202,-0.0449 0.38205,-0.0863 0.59205,-0.12114 0.40855,-0.0677 0.8293,-0.15703 1.26031,-0.26712 0.43101,-0.11013 0.87231,-0.24085 1.3218,-0.39012 0.44949,-0.14921 0.90681,-0.31723 1.37045,-0.50301 0.46365,-0.1858 0.93363,-0.3894 1.40717,-0.60859 0.47354,-0.21919 0.9509,-0.45427 1.43012,-0.70405 0.4792,-0.24978 0.96045,-0.51469 1.44113,-0.79214 0.48066,-0.27748 0.96047,-0.56795 1.43837,-0.8702 0.47789,-0.30224 0.95371,-0.61584 1.42462,-0.93994 0.47089,-0.32412 0.93734,-0.65841 1.39706,-1.00145 0.45972,-0.34303 0.9124,-0.6947 1.35668,-1.05377 0.44427,-0.35908 0.87978,-0.72561 1.30436,-1.09783 0.42458,-0.37222 0.83853,-0.75023 1.23917,-1.13272 0.40065,-0.38247 0.78874,-0.76946 1.16117,-1.15932 0.37243,-0.38986 0.72921,-0.78256 1.06937,-1.17677 0.34016,-0.39421 0.66293,-0.78941 0.96656,-1.18503 0.30364,-0.39563 0.58816,-0.79165 0.85091,-1.18595 l 1.1621,-1.74405 -1.00696,-1.62747 c -0.13837,-0.22382 -0.38122,-0.5424 -0.70129,-0.92616 -0.32007,-0.38379 -0.71707,-0.83299 -1.16483,-1.31815 -0.44778,-0.48513 -0.9463,-1.00587 -1.46776,-1.53383 -0.52146,-0.52796 -1.06616,-1.06292 -1.60726,-1.57515 -0.37109,-0.35126 -0.74334,-0.69126 -1.11801,-1.02072 -0.37469,-0.32947 -0.75162,-0.64836 -1.13089,-0.95647 -0.37927,-0.30812 -0.76161,-0.60591 -1.14648,-0.89313 -0.38486,-0.28723 -0.77245,-0.56392 -1.1639,-0.83072 -0.39148,-0.26679 -0.78601,-0.52334 -1.18505,-0.77014 -0.39902,-0.24678 -0.80222,-0.48418 -1.2098,-0.71138 -0.40759,-0.2272 -0.82024,-0.44458 -1.23736,-0.65264 -0.41712,-0.20806 -0.83908,-0.40639 -1.26672,-0.59573 -0.42765,-0.18933 -0.86064,-0.36959 -1.29977,-0.54064 -0.43915,-0.17106 -0.88395,-0.33327 -1.33559,-0.48651 -0.45163,-0.15329 -0.90989,-0.29742 -1.37503,-0.43325 -0.46514,-0.13589 -0.93763,-0.263 -1.41726,-0.38187 -0.47963,-0.11883 -0.96624,-0.22905 -1.46132,-0.33136 -0.49509,-0.10231 -0.99845,-0.19651 -1.50998,-0.28271 -0.51154,-0.0862 -1.03149,-0.16449 -1.56046,-0.23499 -0.52898,-0.0705 -1.06719,-0.13375 -1.61462,-0.1891 l -3.14753,-0.3185 -0.45805,-2.16996 c -0.25234,-1.19355 -0.60676,-2.97509 -0.78757,-3.95806 -0.0789,-0.42807 -0.14317,-0.75243 -0.21663,-0.99412 -0.0368,-0.12078 -0.0757,-0.22105 -0.12026,-0.3029 -0.0446,-0.0819 -0.0947,-0.14584 -0.15329,-0.19369 -0.0586,-0.048 -0.12594,-0.0801 -0.2047,-0.0991 -0.0787,-0.019 -0.16857,-0.025 -0.27355,-0.0203 z m 4.05444,11.60798 c 0.2636,8.7e-4 0.5707,0.0258 0.90507,0.0725 0.26749,0.0375 0.55233,0.089 0.84723,0.15329 0.29492,0.0643 0.59962,0.14139 0.90599,0.23038 0.30637,0.089 0.61514,0.18968 0.917,0.30108 0.30185,0.11138 0.59708,0.23374 0.87845,0.36535 0.31365,0.14672 0.61757,0.30008 0.91149,0.45986 0.29391,0.15986 0.57763,0.32556 0.85183,0.49844 0.27421,0.17283 0.53854,0.35286 0.79308,0.53882 0.25454,0.18596 0.49943,0.37831 0.73433,0.57736 0.23489,0.19905 0.46034,0.40476 0.67559,0.61685 0.21525,0.21208 0.42037,0.43027 0.61592,0.65539 0.19555,0.22511 0.38137,0.4567 0.55719,0.69486 0.17585,0.23815 0.34149,0.48315 0.4975,0.73433 0.15595,0.25121 0.30251,0.50866 0.43876,0.7729 0.13624,0.26422 0.26262,0.53512 0.37911,0.81234 0.11652,0.27725 0.22269,0.56072 0.31942,0.85091 0.0968,0.29021 0.18367,0.58724 0.26069,0.89038 0.0771,0.30316 0.1437,0.61289 0.20102,0.92894 0.0572,0.31605 0.1048,0.6385 0.14228,0.96749 0.0375,0.32898 0.0659,0.66409 0.0835,1.00603 0.0178,0.34193 0.025,0.69061 0.0229,1.04551 -0.002,0.29984 -0.0107,0.59428 -0.0266,0.88395 -0.016,0.2897 -0.0393,0.57484 -0.0698,0.85459 -0.0304,0.27974 -0.068,0.55427 -0.11297,0.82428 -0.0449,0.27003 -0.0973,0.53532 -0.15702,0.79584 -0.0597,0.26053 -0.12648,0.51603 -0.20103,0.76737 -0.0746,0.25136 -0.15737,0.4983 -0.24692,0.74077 -0.0895,0.24246 -0.18629,0.48122 -0.29099,0.71505 -0.10462,0.23383 -0.21697,0.46299 -0.33687,0.68844 -0.1199,0.22546 -0.24749,0.44634 -0.38277,0.66367 -0.13535,0.21731 -0.27784,0.43122 -0.42867,0.6407 -0.1508,0.20946 -0.30989,0.41492 -0.4764,0.61683 -0.16643,0.20193 -0.34086,0.40016 -0.5232,0.59482 -0.18235,0.19467 -0.37268,0.38604 -0.57095,0.57369 -0.19828,0.18766 -0.4043,0.3717 -0.61868,0.5526 -0.21437,0.18088 -0.43668,0.35801 -0.66733,0.53238 -0.23063,0.17444 -0.46982,0.34592 -0.71688,0.51404 -0.38507,0.26202 -0.68634,0.4564 -0.9271,0.57736 -0.12043,0.0606 -0.22539,0.10232 -0.31852,0.12576 -0.0931,0.0234 -0.17425,0.0277 -0.246,0.0124 -0.0718,-0.0142 -0.13375,-0.0492 -0.19,-0.10374 -0.0561,-0.0545 -0.10658,-0.12949 -0.1533,-0.22489 -0.0467,-0.0954 -0.09,-0.21147 -0.13304,-0.34881 -0.0432,-0.13731 -0.086,-0.2958 -0.13127,-0.4764 -0.0325,-0.12984 -0.0568,-0.25001 -0.0716,-0.3644 -0.0142,-0.11439 -0.0195,-0.22255 -0.0124,-0.32771 0.007,-0.10515 0.0254,-0.20731 0.0568,-0.30933 0.0316,-0.10196 0.076,-0.20429 0.13588,-0.30934 0.0599,-0.10498 0.13518,-0.21266 0.22672,-0.32677 0.0917,-0.11404 0.19905,-0.23514 0.32586,-0.36442 0.2536,-0.25854 0.58152,-0.55308 0.99685,-0.90874 0.19832,-0.16982 0.38831,-0.34386 0.57004,-0.5223 0.18172,-0.17843 0.35517,-0.36165 0.52045,-0.54798 0.16538,-0.18635 0.3219,-0.37569 0.4709,-0.56912 0.14903,-0.19342 0.29031,-0.3905 0.42316,-0.59022 0.13286,-0.19971 0.25765,-0.40244 0.37451,-0.60765 0.11688,-0.20523 0.22571,-0.41327 0.32678,-0.62328 0.10107,-0.21001 0.19449,-0.42206 0.27996,-0.63612 0.0854,-0.21404 0.16306,-0.42977 0.23315,-0.64712 0.0702,-0.21734 0.13234,-0.43652 0.18726,-0.65631 0.0549,-0.2198 0.10249,-0.44034 0.14228,-0.66183 0.0398,-0.22148 0.0716,-0.44305 0.0965,-0.66548 0.0249,-0.22244 0.0423,-0.44562 0.0522,-0.66825 0.0107,-0.22262 0.0124,-0.44528 0.009,-0.66732 -0.005,-0.22205 -0.016,-0.44391 -0.0348,-0.66457 -0.0188,-0.22067 -0.0448,-0.43963 -0.078,-0.65815 -0.0332,-0.21852 -0.0739,-0.43615 -0.12114,-0.65172 -0.0472,-0.21558 -0.10125,-0.42973 -0.16253,-0.64162 -0.0611,-0.2119 -0.12985,-0.42135 -0.2047,-0.62879 -0.075,-0.20741 -0.15649,-0.41281 -0.24507,-0.615 -0.0885,-0.20219 -0.18356,-0.40137 -0.28549,-0.59756 -0.10195,-0.19619 -0.21068,-0.38886 -0.32585,-0.57828 -0.11511,-0.18944 -0.23708,-0.37529 -0.36533,-0.55719 -0.12825,-0.18189 -0.26275,-0.35975 -0.40389,-0.53331 -0.14121,-0.17354 -0.28859,-0.34315 -0.44244,-0.5076 -0.15382,-0.16449 -0.31365,-0.32458 -0.48007,-0.47915 -0.16644,-0.15454 -0.3398,-0.30401 -0.51862,-0.44795 -0.1788,-0.14387 -0.36339,-0.28237 -0.55441,-0.4149 -0.19102,-0.13251 -0.38808,-0.25871 -0.59115,-0.37909 -0.20306,-0.12043 -0.41204,-0.23492 -0.62694,-0.3424 -0.21489,-0.10746 -0.43522,-0.2082 -0.66182,-0.30198 -0.22658,-0.0938 -0.45947,-0.18051 -0.69762,-0.25978 -0.23814,-0.0792 -0.48201,-0.15081 -0.73157,-0.21479 -0.25975,-0.0666 -0.49708,-0.13553 -0.71414,-0.20836 -0.21706,-0.0728 -0.41385,-0.14956 -0.59114,-0.23225 -0.17728,-0.0826 -0.3357,-0.17052 -0.4764,-0.26619 -0.14068,-0.0956 -0.26371,-0.19878 -0.37084,-0.31025 -0.10711,-0.11155 -0.1986,-0.23184 -0.27537,-0.36259 -0.0767,-0.13073 -0.13891,-0.27184 -0.18818,-0.42499 -0.0492,-0.15311 -0.0853,-0.31783 -0.11013,-0.49659 -0.0249,-0.17875 -0.0384,-0.37158 -0.0423,-0.57919 -8.8e-4,-0.0462 0.0107,-0.0877 0.033,-0.12488 0.0229,-0.0371 0.0572,-0.07 0.10196,-0.0982 0.0446,-0.0282 0.0998,-0.0519 0.16431,-0.0716 0.0645,-0.0197 0.13872,-0.0353 0.22121,-0.0469 0.12363,-0.0178 0.26591,-0.0254 0.42407,-0.0247 z m -4.32614,0.0799 c 0.0543,-0.001 0.0854,0.005 0.0854,0.0229 0,0.0838 0.18935,0.81393 0.42131,1.62288 0.0929,0.32394 0.15791,0.58184 0.18726,0.79307 0.0142,0.10569 0.0202,0.19968 0.016,0.28456 -0.004,0.0849 -0.0178,0.1604 -0.0414,0.22948 -0.0242,0.0691 -0.0586,0.13162 -0.10463,0.19001 -0.046,0.0584 -0.10373,0.11262 -0.17354,0.16519 -0.13944,0.10516 -0.32747,0.20349 -0.57185,0.31485 -0.12825,0.0584 -0.24279,0.10853 -0.34514,0.14779 -0.10231,0.0392 -0.19237,0.0673 -0.27354,0.0835 -0.0812,0.016 -0.15276,0.0204 -0.21754,0.0107 -0.0648,-0.0107 -0.1231,-0.0355 -0.17621,-0.0762 -0.0533,-0.0407 -0.10231,-0.0979 -0.14867,-0.17248 -0.0464,-0.0748 -0.0904,-0.16661 -0.135,-0.27905 -0.089,-0.22474 -0.17852,-0.52884 -0.28824,-0.92617 -0.13038,-0.47248 -0.23699,-0.91134 -0.30383,-1.23828 -0.0334,-0.16342 -0.0574,-0.29906 -0.0689,-0.39654 -0.0107,-0.0975 -0.0107,-0.1572 0.004,-0.16892 0.0545,-0.0444 0.1912,-0.10445 0.37176,-0.16893 0.18058,-0.0645 0.40492,-0.13322 0.63429,-0.19734 0.22935,-0.0641 0.46368,-0.12363 0.66458,-0.16715 0.20088,-0.0435 0.3684,-0.071 0.46353,-0.0734 z m -5.73332,1.16483 c 0.0584,-0.001 0.11315,0.004 0.16431,0.016 0.0682,0.016 0.13109,0.044 0.1891,0.0872 0.0581,0.0432 0.11138,0.10125 0.16253,0.17621 0.0512,0.075 0.0989,0.16715 0.14601,0.27813 0.0469,0.11101 0.0927,0.2413 0.13855,0.39287 0.0918,0.30314 0.18463,0.69156 0.29007,1.1832 0.16093,0.75071 0.28211,1.30972 0.35707,1.75322 0.0375,0.22175 0.0636,0.41521 0.0771,0.58838 0.0142,0.17319 0.0142,0.32655 0.004,0.46997 -0.0124,0.14334 -0.0371,0.27686 -0.0762,0.40939 -0.0391,0.13251 -0.092,0.26431 -0.15969,0.4048 -0.13535,0.28099 -0.32936,0.59663 -0.58839,1.02257 l -0.88487,1.45582 -0.79032,-3.55418 c -0.10569,-0.47536 -0.19705,-0.89792 -0.27355,-1.27499 -0.0766,-0.37705 -0.1382,-0.70899 -0.18358,-1.00053 -0.0455,-0.29155 -0.0746,-0.54302 -0.0872,-0.76188 -0.0124,-0.21883 -0.009,-0.40467 0.0142,-0.56359 0.0222,-0.15898 0.0625,-0.29106 0.12114,-0.40297 0.0293,-0.0559 0.0632,-0.10675 0.10196,-0.15329 0.0387,-0.0465 0.0819,-0.089 0.13038,-0.12754 0.0968,-0.0773 0.21295,-0.13997 0.34973,-0.19551 0.13677,-0.0556 0.29417,-0.10392 0.47272,-0.15045 0.12167,-0.0318 0.22949,-0.0504 0.32678,-0.0524 z m 21.87674,1.26856 c 0.0696,0.002 0.18328,0.0364 0.33412,0.0982 0.1508,0.0618 0.33918,0.15187 0.55626,0.26437 0.43414,0.22491 0.98562,0.54149 1.59533,0.91423 0.72262,0.44178 1.5269,0.96146 2.31316,1.49896 0.39312,0.26876 0.78202,0.54246 1.15381,0.81237 0.3718,0.26989 0.72629,0.53631 1.05193,0.79216 0.3036,0.23852 0.61888,0.5007 0.93813,0.77839 0.31925,0.27768 0.64235,0.57079 0.96198,0.8711 0.3196,0.30032 0.63526,0.60783 0.93993,0.91425 0.30469,0.30641 0.59848,0.61184 0.87294,0.90782 0.27443,0.29598 0.5302,0.58282 0.75911,0.85184 0.22891,0.269 0.4305,0.51982 0.59848,0.74534 0.16803,0.2255 0.30211,0.42567 0.39378,0.59113 0.0458,0.0828 0.0808,0.15667 0.10462,0.22122 0.0238,0.0647 0.0368,0.11989 0.0368,0.1643 0,0.043 -0.0204,0.10267 -0.0588,0.1771 -0.0384,0.0746 -0.0943,0.16377 -0.16697,0.26621 -0.14548,0.20491 -0.35599,0.46211 -0.61593,0.75635 -0.25994,0.29424 -0.56968,0.62572 -0.91332,0.97943 -0.34362,0.35371 -0.72115,0.72967 -1.11709,1.11252 -0.39595,0.38282 -0.81078,0.77257 -1.22817,1.15474 -0.41739,0.38214 -0.83771,0.75635 -1.24562,1.10791 -0.4079,0.35157 -0.80286,0.68107 -1.17035,0.97207 -0.36748,0.29101 -0.70715,0.54392 -1.00328,0.74444 -0.77159,0.52251 -1.46246,0.97555 -2.06073,1.35301 -0.59825,0.37746 -1.10394,0.67936 -1.50445,0.89864 -0.20028,0.10959 -0.37421,0.19864 -0.52047,0.26619 -0.14619,0.0675 -0.26484,0.11368 -0.35432,0.13766 -0.0895,0.024 -0.14938,0.0259 -0.17899,0.005 -0.0142,-0.0107 -0.0219,-0.0274 -0.0211,-0.0496 7.5e-4,-0.0222 0.009,-0.0503 0.0258,-0.0844 0.68008,-1.39274 1.19907,-2.46489 1.59533,-3.34029 0.19812,-0.43771 0.36491,-0.82638 0.5067,-1.18137 0.14174,-0.35499 0.25825,-0.67605 0.35339,-0.9794 0.0952,-0.30337 0.16946,-0.58838 0.22765,-0.87111 0.0581,-0.28275 0.10018,-0.5632 0.13126,-0.85643 0.0311,-0.29323 0.0513,-0.59967 0.0652,-0.93443 0.0142,-0.33476 0.0213,-0.69783 0.0275,-1.10518 0.007,-0.4809 0.002,-0.94271 -0.0142,-1.38788 -0.016,-0.44519 -0.0442,-0.87375 -0.0844,-1.28693 -0.0407,-0.41316 -0.0936,-0.8108 -0.15969,-1.19604 -0.0661,-0.38524 -0.14512,-0.75806 -0.23773,-1.11986 -0.0925,-0.36181 -0.19848,-0.71326 -0.31853,-1.0556 -0.12007,-0.34236 -0.25423,-0.67559 -0.40296,-1.00238 -0.14868,-0.32678 -0.31183,-0.6466 -0.49017,-0.96197 -0.17835,-0.31538 -0.37197,-0.62632 -0.58103,-0.93443 -0.32291,-0.47583 -0.61611,-0.93447 -0.82889,-1.28969 -0.1064,-0.17763 -0.19281,-0.32898 -0.25242,-0.44426 -0.0597,-0.11528 -0.0927,-0.19429 -0.0927,-0.22582 0,-0.0178 0.007,-0.0304 0.0203,-0.0386 0.0124,-0.009 0.0329,-0.0124 0.0588,-0.0106 z"
       style="fill:#ffffff;fill-opacity:1;stroke-width:0.231485;stroke-linecap:round;stroke-linejoin:round"
       id="path331" /></g></svg>
